<?xml version="1.0" standalone="no"?>
<!DOCTYPE svg PUBLIC "-//W3C//DTD SVG 20010904//EN"
 "http://www.w3.org/TR/2001/REC-SVG-20010904/DTD/svg10.dtd">
<svg version="1.0" xmlns="http://www.w3.org/2000/svg"
 width="77.000000pt" height="77.000000pt" viewBox="0 0 77.000000 77.000000"
 preserveAspectRatio="xMidYMid meet">
<metadata>
Created by potrace 1.14, written by Peter Selinger 2001-2017
</metadata>
<g transform="translate(0.000000,77.000000) scale(0.100000,-0.100000)"
fill="#000000" stroke="none">
<path d="M287 600 c-21 -6 -52 -17 -70 -26 -40 -21 -151 -127 -178 -170 -19
-31 -19 -35 -4 -64 27 -52 128 -145 191 -176 53 -26 69 -29 159 -29 85 0 107
4 148 24 61 30 150 111 183 167 24 41 24 44 9 74 -25 47 -124 142 -184 174
-43 23 -68 29 -135 32 -44 2 -98 -1 -119 -6z"/>
</g>
</svg>
